<svg width="40" height="40" viewBox="0 0 40 40" fill="none" xmlns="http://www.w3.org/2000/svg">
<path d="M40 20C40 8.9543 31.0457 0 20 0C8.9543 0 0 8.9543 0 20C0 31.0457 8.9543 40 20 40C31.0457 40 40 31.0457 40 20Z" fill="url(#paint0_linear_468_3701)"/>
<path d="M16.1689 20.0001C16.1689 17.8831 17.8841 16.1665 20.0005 16.1665C22.1169 16.1665 23.833 17.8831 23.833 20.0001C23.833 22.1171 22.1169 23.8337 20.0005 23.8337C17.8841 23.8337 16.1689 22.1171 16.1689 20.0001ZM14.0971 20.0001C14.0971 23.2615 16.74 25.9052 20.0005 25.9052C23.2609 25.9052 25.9039 23.2615 25.9039 20.0001C25.9039 16.7387 23.2609 14.095 20.0005 14.095C16.74 14.095 14.0971 16.7387 14.0971 20.0001ZM24.758 13.8608C24.7579 14.1338 24.8387 14.4006 24.9902 14.6276C25.1417 14.8546 25.3571 15.0316 25.6091 15.1361C25.8612 15.2407 26.1386 15.2681 26.4062 15.215C26.6739 15.1618 26.9197 15.0305 27.1127 14.8376C27.3058 14.6447 27.4372 14.3988 27.4906 14.1312C27.5439 13.8635 27.5167 13.586 27.4124 13.3338C27.3081 13.0816 27.1313 12.866 26.9045 12.7143C26.6777 12.5625 26.411 12.4815 26.1381 12.4814H26.1376C25.7719 12.4816 25.4211 12.6269 25.1624 12.8856C24.9038 13.1442 24.7583 13.495 24.758 13.8608ZM15.3558 29.3608C14.235 29.3097 13.6257 29.123 13.2208 28.9652C12.6841 28.7562 12.3011 28.5072 11.8984 28.105C11.4958 27.7028 11.2465 27.3201 11.0385 26.7831C10.8807 26.3784 10.694 25.7687 10.643 24.6475C10.5873 23.4353 10.5761 23.0712 10.5761 20.0002C10.5761 16.9291 10.5882 16.566 10.643 15.3528C10.694 14.2316 10.8822 13.6232 11.0385 13.2172C11.2475 12.6803 11.4963 12.2972 11.8984 11.8944C12.3006 11.4916 12.6831 11.2423 13.2208 11.0342C13.6255 10.8763 14.235 10.6896 15.3558 10.6386C16.5677 10.5829 16.9317 10.5717 20.0005 10.5717C23.0693 10.5717 23.4337 10.5838 24.6465 10.6386C25.7674 10.6897 26.3756 10.8778 26.7815 11.0342C27.3183 11.2423 27.7012 11.4922 28.1039 11.8944C28.5066 12.2966 28.7549 12.6803 28.9638 13.2172C29.1216 13.622 29.3084 14.2316 29.3593 15.3528C29.4151 16.566 29.4262 16.9291 29.4262 20.0002C29.4262 23.0712 29.4151 23.4343 29.3593 24.6475C29.3083 25.7687 29.1206 26.3782 28.9638 26.7831C28.7549 27.3201 28.506 27.7031 28.1039 28.105C27.7018 28.5069 27.3183 28.7562 26.7815 28.9652C26.3768 29.1231 25.7674 29.3098 24.6465 29.3608C23.4347 29.4165 23.0706 29.4277 20.0005 29.4277C16.9303 29.4277 16.5673 29.4165 15.3558 29.3608ZM15.2606 8.56975C14.0367 8.62546 13.2004 8.81962 12.4701 9.10387C11.7137 9.39746 11.0733 9.79128 10.4335 10.4303C9.79364 11.0693 9.40091 11.7109 9.10743 12.4675C8.82322 13.1985 8.62917 14.0346 8.5734 15.2588C8.51678 16.485 8.50378 16.8771 8.50378 20.0001C8.50378 23.1231 8.51678 23.5151 8.5734 24.7413C8.62917 25.9656 8.82322 26.8017 9.10743 27.5327C9.40091 28.2888 9.79374 28.9311 10.4335 29.5698C11.0732 30.2086 11.7137 30.6019 12.4701 30.8963C13.2018 31.1806 14.0367 31.3747 15.2606 31.4305C16.4871 31.4862 16.8784 31.5001 20.0005 31.5001C23.1226 31.5001 23.5145 31.4871 24.7403 31.4305C25.9643 31.3747 26.8001 31.1806 27.5309 30.8963C28.2868 30.6019 28.9276 30.2089 29.5675 29.5698C30.2073 28.9308 30.5992 28.2888 30.8935 27.5327C31.1777 26.8017 31.3727 25.9656 31.4275 24.7413C31.4833 23.5142 31.4963 23.1231 31.4963 20.0001C31.4963 16.8771 31.4833 16.485 31.4275 15.2588C31.3718 14.0345 31.1777 13.198 30.8935 12.4675C30.5992 11.7113 30.2063 11.0704 29.5675 10.4303C28.9286 9.79028 28.2868 9.39746 27.5318 9.10387C26.8001 8.81962 25.9642 8.62456 24.7413 8.56975C23.5154 8.51398 23.1235 8.50008 20.0014 8.50008C16.8793 8.50008 16.4871 8.51303 15.2606 8.56975Z" fill="white"/>
<defs>
<linearGradient id="paint0_linear_468_3701" x1="26.0467" y1="47.3862" x2="15.1903" y2="2.44624e-07" gradientUnits="userSpaceOnUse">
<stop stop-color="#FBE18A"/>
<stop offset="0.21" stop-color="#FCBB45"/>
<stop offset="0.38" stop-color="#F75274"/>
<stop offset="0.52" stop-color="#D53692"/>
<stop offset="0.74" stop-color="#8F39CE"/>
<stop offset="1" stop-color="#5B4FE9"/>
</linearGradient>
</defs>
</svg>
